<?xml version="1.0" ?><svg id="Layer_1" style="enable-background:new 0 0 512 512;" version="1.1" viewBox="0 0 512 512" xml:space="preserve" xmlns="http://www.w3.org/2000/svg" xmlns:xlink="http://www.w3.org/1999/xlink"><style type="text/css">
	.st0{fill:#CCE134;}
	.st1{fill:#F3922B;}
	.st2{fill:#DC3348;}
	.st3{fill:#01B49E;}
	.st4{fill:#A0A01C;}
	.st5{fill:#3C7D90;}
</style><g id="XMLID_703_"><polygon class="st0" id="XMLID_662_" points="63.5,256 15.4,172.6 63.5,89.3 159.7,89.3 207.9,172.6 159.7,256  "/><polygon class="st1" id="XMLID_704_" points="207.9,172.7 159.8,89.3 207.9,6 304.1,6 352.2,89.3 304.1,172.7  "/><polygon class="st2" id="XMLID_705_" points="352.3,256 304.1,172.7 352.3,89.3 448.5,89.3 496.6,172.7 448.5,256  "/><polygon class="st3" id="XMLID_869_" points="65.1,422.7 17,339.3 65.1,256 161.4,256 209.5,339.3 161.4,422.7  "/><polygon class="st4" id="XMLID_868_" points="209.5,506 161.4,422.7 209.5,339.3 305.7,339.3 353.8,422.7 305.7,506  "/><polygon class="st5" id="XMLID_867_" points="352.2,422.7 304.1,339.3 352.2,256 448.4,256 496.5,339.3 448.4,422.7  "/></g></svg>